<?xml version="1.0" encoding="UTF-8" standalone="no"?>
<svg
   xmlns:dc="http://purl.org/dc/elements/1.1/"
   xmlns:cc="http://creativecommons.org/ns#"
   xmlns:rdf="http://www.w3.org/1999/02/22-rdf-syntax-ns#"
   xmlns:svg="http://www.w3.org/2000/svg"
   xmlns="http://www.w3.org/2000/svg"
   xmlns:sodipodi="http://sodipodi.sourceforge.net/DTD/sodipodi-0.dtd"
   xmlns:inkscape="http://www.inkscape.org/namespaces/inkscape"
   width="100mm"
   height="49.125mm"
   viewBox="0 0 100 49.125"
   version="1.1"
   id="svg1021"
   inkscape:version="0.92.4 5da689c313, 2019-01-14"
   sodipodi:docname="logo.svg">
  <defs
     id="defs1015" />
  <sodipodi:namedview
     id="base"
     pagecolor="#ffffff"
     bordercolor="#666666"
     borderopacity="1.0"
     inkscape:pageopacity="0.0"
     inkscape:pageshadow="2"
     inkscape:zoom="0.35"
     inkscape:cx="255.71429"
     inkscape:cy="560"
     inkscape:document-units="mm"
     inkscape:current-layer="layer1"
     showgrid="false"
     inkscape:window-width="1366"
     inkscape:window-height="717"
     inkscape:window-x="0"
     inkscape:window-y="27"
     inkscape:window-maximized="1" />
  <metadata
     id="metadata1018">
    <rdf:RDF>
      <cc:Work
         rdf:about="">
        <dc:format>image/svg+xml</dc:format>
        <dc:type
           rdf:resource="http://purl.org/dc/dcmitype/StillImage" />
        <dc:title></dc:title>
      </cc:Work>
    </rdf:RDF>
  </metadata>
  <g
     inkscape:label="Ebene 1"
     inkscape:groupmode="layer"
     id="layer1"
     transform="translate(0,-247.875)">
    <path
       inkscape:connector-curvature="0"
       id="path57"
       d="m 37.55622,250.97681 h -6.067313 v 9.89191 l 6.067313,0.0537 z m 0,0"
       style="fill:#453f3a;fill-opacity:1;fill-rule:nonzero;stroke:none;stroke-width:0.52866995"
       inkscape:export-filename="/home/ushi/Downloads/path63.png"
       inkscape:export-xdpi="21.695648"
       inkscape:export-ydpi="21.695648" />
    <path
       inkscape:connector-curvature="0"
       id="path59"
       d="m 81.140521,247.875 -1.338197,3.28974 7.376596,3.95263 -14.519838,-0.52455 H 61.804827 c -5.664621,0 -10.255374,4.59284 -10.255374,10.25538 v 6.23665 c 0,8.0395 -5.146268,8.40504 -7.021397,8.40504 -1.782195,0 -6.5299,-0.36967 -6.940863,-7.40346 l -6.096225,10e-4 c 0.03098,2.54216 0.683554,12.7046 12.989592,12.7046 13.28696,0 13.134144,-11.66378 13.134144,-13.13621 v -7.453 c 0,-2.26543 1.837952,-4.10337 4.103388,-4.10337 h 10.854255 l 14.606573,-0.51836 -7.376596,3.95265 1.338197,3.28972 18.858644,-7.96672 v -3.01508 z m 0,0"
       style="fill:#453f3a;fill-opacity:1;fill-rule:nonzero;stroke:none;stroke-width:0.52866995"
       inkscape:export-filename="/home/ushi/Downloads/path63.png"
       inkscape:export-xdpi="21.695648"
       inkscape:export-ydpi="21.695648" />
    <path
       inkscape:connector-curvature="0"
       id="path61"
       d="m 65.720288,263.90032 c -0.08055,0.24573 -5.111166,15.68249 -9.433455,25.98123 -0.644316,-1.47037 -1.323744,-3.13278 -2.011425,-4.88813 -1.534381,1.05114 -3.310383,1.79459 -5.317673,2.22825 1.30102,3.10388 2.738342,6.40394 4.301639,9.77833 h 5.776129 c 5.978511,-12.86566 10.800561,-26.35088 13.136211,-33.09968 z m 0,0"
       style="fill:#453f3a;fill-opacity:1;fill-rule:nonzero;stroke:none;stroke-width:0.52866995"
       inkscape:export-filename="/home/ushi/Downloads/path63.png"
       inkscape:export-xdpi="21.695648"
       inkscape:export-ydpi="21.695648" />
    <path
       inkscape:connector-curvature="0"
       id="path63"
       d="m 40.951275,263.84869 h -9.408676 l -18.722352,0.35726 7.376595,-3.95264 -1.338194,-3.2918 L 0,264.92874 v 3.01712 l 18.858648,7.96725 1.338194,-3.29182 -7.376595,-3.95262 18.334112,0.52041 h 9.408672 c 0.865285,0 1.63764,0.53692 1.928819,1.35265 0.555517,1.54677 1.307217,3.61189 2.234458,6.05286 1.47449,-0.0105 3.929914,-0.23749 3.929914,-5.50974 v -1.64589 c -0.0042,-0.0105 -0.01034,-0.0228 -0.01244,-0.0351 -1.123421,-3.29799 -4.20871,-5.52419 -7.692559,-5.55517"
       style="fill:#453f3a;fill-opacity:1;fill-rule:nonzero;stroke:none;stroke-width:0.52866995"
       inkscape:export-filename="/home/ushi/Downloads/path63.png"
       inkscape:export-xdpi="21.695648"
       inkscape:export-ydpi="21.695648" />
  </g>
</svg>
